<svg version="1.2" xmlns="http://www.w3.org/2000/svg" viewBox="87.99999999999999 31.000000000000007 326.00000000000006 225.00000000000006" width="145" height="100">
	<title>Logo</title>
	<style>
		.s0 { fill: #0b3263 } 
		.s1 { fill: #b41943 } 
		.s2 { fill: #000000 } 
	</style>
	<g id="Layer 1">
		<g id="&lt;Group&gt;">
			<path id="&lt;Path&gt;" class="s0" d="m188.1 167.8c-0.5-0.8-0.4-1.8 0.1-2.5l28.4-42.6h-41.9c-3.8 0-6.9-3.1-6.9-6.9l4-21.2c0-3.9 3.1-6.9 6.9-6.9h61.3l33.1-49.7h-133.4c-6.5 0-11.9 4.7-13 11l-34.7 181c-1.4 8 4.8 15.4 13 15.4h31.3c6.2 0 11.6-4.4 12.9-10.5l14.5-66h25.8c-0.6-0.2-1.1-0.6-1.4-1.2z"/>
			<g id="&lt;Group&gt;">
				<path id="&lt;Path&gt;" class="s1" d="m399.3 38h-109.1l-33 88.6c-0.6 1.4 0.5 2.9 2 2.9h26.7c1.7 0 2.7 1.9 1.7 3.3l-77.6 112.9h157.7c4.7 0 8.8-3.3 9.7-8l5.1-26.1c1.2-6.2-3.5-11.9-9.8-11.9h-83.4l6-35.7h85.1c4.8 0 8.9-3.5 9.7-8.2l3.8-21.8c1-6-3.6-11.6-9.8-11.6h-81.8l6.8-40.7h85c4.7 0 8.7-3.3 9.7-7.9l5.2-24.5c1.3-6.1-3.4-11.3-9.7-11.3z"/>
			</g>
			<g id="&lt;Group&gt;">
				<path id="&lt;Path&gt;" class="s2" d="m210.8 245.8l-2-0.1 78-113.5c0.2-0.3 0.3-0.8 0.1-1.1-0.2-0.4-0.6-0.6-1-0.6h-26.7c-1.1 0-2-0.6-2.6-1.4-0.6-0.8-0.7-1.9-0.4-2.9l33.1-88.2h2.1l-33.3 88.9c-0.1 0.4-0.1 0.8 0.1 1.1 0.3 0.3 0.6 0.5 1 0.5h26.7c1.1 0 2.2 0.6 2.7 1.6 0.6 1.1 0.5 2.3-0.1 3.3z"/>
			</g>
			<g id="&lt;Group&gt;">
				<path id="&lt;Path&gt;" class="s2" d="m189.8 166.4c-0.1 0.2 0 0.3 0 0.4 0.1 0.1 0.2 0.2 0.4 0.2h32.4c0.8 0 1.5 0.4 1.9 1 0.5 0.6 0.6 1.4 0.4 2.2l-26.2 75.5h-2.4l26.7-76.2c0-0.2 0-0.3-0.1-0.3 0-0.1-0.1-0.2-0.3-0.2h-32.4q-0.4 0-0.7-0.1c-0.6-0.2-1.1-0.6-1.4-1.2-0.5-0.7-0.4-1.7 0.1-2.4l84.9-127.3h2.4l-35.3 53z"/>
			</g>
		</g>
	</g>
</svg>