<svg version="1.2" xmlns="http://www.w3.org/2000/svg" viewBox="0 0 501 498" width="1006" height="1000">
	<title>Logo</title>
	<style>
		.s0 { fill: #0b3263 } 
		.s1 { fill: #b41943 } 
		.s2 { fill: #000000 } 
	</style>
	<g id="Layer 1">
		<g id="&lt;Group&gt;">
			<g id="&lt;Group&gt;">
				<path id="&lt;Path&gt;" class="s0" d="m122 303.6h-48.5c-3.2 0-5.7 2.5-5.7 5.7v68.9c0 3.1 2.5 5.7 5.7 5.7h3.3c3.1 0 5.7-2.6 5.7-5.7v-29h37.2c3.2 0 5.7-2.6 5.7-5.8 0-3.1-2.5-5.7-5.7-5.7h-37.2v-22.7h39.5c3.2 0 5.7-2.6 5.7-5.7 0-3.2-2.5-5.7-5.7-5.7z"/>
				<path id="&lt;Path&gt;" class="s0" d="m206.3 378c0-3.1-2.5-5.5-5.5-5.5h-42.3v-24.2h37.7c3.1 0 5.5-2.4 5.5-5.4 0-3-2.4-5.5-5.5-5.5h-37.7v-22.4h41.6c3.1 0 5.5-2.5 5.5-5.5v-0.5c0-3-2.4-5.4-5.5-5.4h-50.8c-3.1 0-5.5 2.4-5.5 5.4v69.4c0 3 2.4 5.5 5.5 5.5h51.5c3 0 5.5-2.5 5.5-5.5z"/>
				<path id="&lt;Compound Path&gt;" class="s0" d="m283.4 379.9c1-2.5 0.5-5.3-1.4-7.2l-17.7-18.6c-0.8-0.9-1.1-2.1-0.8-3.2 0.4-1.1 1.3-1.9 2.4-2.1 2.7-0.5 5.1-1.2 7.3-2.2 4.4-1.9 7.9-4.5 10.3-7.9 2.4-3.4 3.6-7.5 3.6-12.1 0-4.4-1.2-8.3-3.6-11.8-2.4-3.4-5.9-6.2-10.3-8.2-4.4-2-9.6-3-15.4-3h-28.1c-3.7 0-6.7 3-6.7 6.6v67.1c0 3.6 3 6.6 6.7 6.6h1.4c3.6 0 6.6-3 6.6-6.6v-24.6c0-1.8 1.4-3.2 3.2-3.2 0.8 0 1.7 0.4 2.3 1l29.2 31.3c1.2 1.3 3 2.1 4.8 2.1 2.8 0 5.1-1.5 6.2-4zm-42.5-40.7c-1.8 0-3.2-1.4-3.2-3.1v-18.5c0-1.8 1.4-3.2 3.2-3.2h16.2c4.9 0 8.7 1.2 11.3 3.6 2.7 2.4 4 5.3 4 8.8 0 3.9-1.4 7-4.1 9.2-2.7 2.1-6.5 3.2-11.3 3.2z"/>
				<path id="&lt;Path&gt;" class="s0" d="m389.4 383.9h1.3c3.7 0 6.7-3 6.7-6.7v-66.9c0-3.7-3-6.7-6.7-6.7-2.1 0-4.3 1.1-5.7 3l-31.5 44.9c-0.5 0.6-1.3 1-2.1 1-0.8 0-1.6-0.4-2-1l-31.6-44.9c-1.4-1.9-3.5-3-5.7-3-3.7 0-6.6 3-6.6 6.7v66.9c0 3.7 3 6.7 6.7 6.7h1.3c3.6 0 6.7-3 6.7-6.7v-46l23.1 32.7c1.8 2.7 4.9 4.2 8.1 4.2 3.3 0 6.3-1.5 8.2-4.2l23.1-32.7v46c0 3.7 3 6.7 6.7 6.7z"/>
				<path id="&lt;Path&gt;" class="s0" d="m433.2 310.9c0-4-3.3-7.3-7.3-7.3-4.1 0-7.4 3.3-7.4 7.3v65.7c0 4 3.3 7.3 7.4 7.3 4 0 7.3-3.3 7.3-7.3z"/>
			</g>
			<g id="&lt;Group&gt;">
				<path id="&lt;Path&gt;" class="s0" d="m73.8 431.2h21.9v-4.1h-21.9v-14.9h23.6v-4.2h-23.6-1.6-3.1v43.4h3.1 1.6 23.9v-4.3h-23.9z"/>
				<path id="&lt;Path&gt;" class="s0" d="m160.2 442.4l-25.4-34.4h-3.3v43.4h4.7v-34.5l25.3 34.5h3.4v-43.4h-4.7z"/>
				<path id="&lt;Path&gt;" class="s0" d="m205.8 431.2h21.9v-4.1h-21.9v-14.9h23.6v-4.2h-23.6-1.6-3.1v43.4h3.1 1.6 24v-4.3h-24z"/>
				<path id="&lt;Compound Path&gt;" class="s0" d="m286.4 430.5q3.1-1.5 4.7-4.2 1.6-2.7 1.6-6.4 0-3.4-1.6-6.1-1.6-2.7-4.7-4.3-3-1.5-7.2-1.5h-11-1.6-3.1v43.4h4.7v-19.4h5.9l15.7 19.4h6l-16-19.4q3.8-0.1 6.6-1.5zm-18.2-18.4h11q4.3 0 6.5 2.2 2.3 2.2 2.3 5.8 0 3.6-2.3 5.7-2.3 2.2-6.6 2.2h-10.9z"/>
				<path id="&lt;Path&gt;" class="s0" d="m346.1 432.9h16.2q-0.3 4-1.9 7-1.9 3.7-5.5 5.7-3.5 1.9-8.4 1.9-4.8 0-8.7-2.3-3.8-2.3-5.9-6.3-2.2-4.1-2.2-9.2 0-5.3 2.2-9.3 2.1-4 6-6.4 4-2.3 9-2.3 4.3 0 7.9 1.8 3.5 1.7 5.7 5l3.3-3.3q-2.9-3.8-7.3-5.9-4.4-2-9.6-2-4.7 0-8.7 1.7-4 1.7-7 4.7-3 3.1-4.7 7.1-1.7 4.1-1.7 8.8 0 4.7 1.7 8.8 1.7 4.1 4.6 7.1 2.9 3 6.9 4.8 4 1.7 8.7 1.7 6 0 10.7-2.6 4.6-2.6 7.2-7.6 2.6-5.1 2.6-12.4v-0.7h-21.1z"/>
				<path id="&lt;Path&gt;" class="s0" d="m431.9 408h-5.3l-13.2 19.7-13.2-19.7h-5.5l16.3 24.1v19.3h4.7v-19.6z"/>
			</g>
		</g>
		<g id="&lt;Group&gt;">
			<path id="&lt;Path&gt;" class="s0" d="m188.1 167.8c-0.5-0.8-0.4-1.8 0.1-2.5l28.4-42.6h-41.9c-3.8 0-6.9-3.1-6.9-6.9l4-21.2c0-3.9 3.1-6.9 6.9-6.9h61.3l33.1-49.7h-133.4c-6.5 0-11.9 4.7-13 11l-34.7 181c-1.4 8 4.8 15.4 13 15.4h31.3c6.2 0 11.6-4.4 12.9-10.5l14.5-66h25.8c-0.6-0.2-1.1-0.6-1.4-1.2z"/>
			<g id="&lt;Group&gt;">
				<path id="&lt;Path&gt;" class="s1" d="m399.3 38h-109.1l-33 88.6c-0.6 1.4 0.5 2.9 2 2.9h26.7c1.7 0 2.7 1.9 1.7 3.3l-77.6 112.9h157.7c4.7 0 8.8-3.3 9.7-8l5.1-26.1c1.2-6.2-3.5-11.9-9.8-11.9h-83.4l6-35.7h85.1c4.8 0 8.9-3.5 9.7-8.2l3.8-21.8c1-6-3.6-11.6-9.8-11.6h-81.8l6.8-40.7h85c4.7 0 8.7-3.3 9.7-7.9l5.2-24.5c1.3-6.1-3.4-11.3-9.7-11.3z"/>
			</g>
			<g id="&lt;Group&gt;">
				<path id="&lt;Path&gt;" class="s2" d="m210.8 245.8l-2-0.1 78-113.5c0.2-0.3 0.3-0.8 0.1-1.1-0.2-0.4-0.6-0.6-1-0.6h-26.7c-1.1 0-2-0.6-2.6-1.4-0.6-0.8-0.7-1.9-0.4-2.9l33.1-88.2h2.1l-33.3 88.9c-0.1 0.4-0.1 0.8 0.1 1.1 0.3 0.3 0.6 0.5 1 0.5h26.7c1.1 0 2.2 0.6 2.7 1.6 0.6 1.1 0.5 2.3-0.1 3.3z"/>
			</g>
			<g id="&lt;Group&gt;">
				<path id="&lt;Path&gt;" class="s2" d="m189.8 166.4c-0.1 0.2 0 0.3 0 0.4 0.1 0.1 0.2 0.2 0.4 0.2h32.4c0.8 0 1.5 0.4 1.9 1 0.5 0.6 0.6 1.4 0.4 2.2l-26.2 75.5h-2.4l26.7-76.2c0-0.2 0-0.3-0.1-0.3 0-0.1-0.1-0.2-0.3-0.2h-32.4q-0.4 0-0.7-0.1c-0.6-0.2-1.1-0.6-1.4-1.2-0.5-0.7-0.4-1.7 0.1-2.4l84.9-127.3h2.4l-35.3 53z"/>
			</g>
		</g>
	</g>
</svg>