<svg version="1.2" xmlns="http://www.w3.org/2000/svg" viewBox="61 298 377.99999999999994 155.99999999999994" width="500" height="206">
	<title>Logo</title>
	<style>
		.s0 { fill: #0b3263 } 
	</style>
	<g id="Layer 1">
		<g id="&lt;Group&gt;">
			<g id="&lt;Group&gt;">
				<path id="&lt;Path&gt;" class="s0" d="m120.5 301.8h-49.1c-3.2 0-5.8 2.6-5.8 5.8v69.7c0 3.2 2.6 5.8 5.8 5.8h3.3c3.2 0 5.8-2.6 5.8-5.8v-29.4h37.7c3.2 0 5.8-2.6 5.8-5.8 0-3.1-2.6-5.7-5.8-5.7h-37.7v-23.1h40c3.2 0 5.8-2.6 5.8-5.7 0-3.2-2.6-5.8-5.8-5.8z"/>
				<path id="&lt;Path&gt;" class="s0" d="m205.8 377.1c0-3.1-2.5-5.6-5.6-5.6h-42.8v-24.4h38.2c3.1 0 5.5-2.5 5.5-5.5 0-3.1-2.4-5.6-5.5-5.6h-38.2v-22.7h42.1c3.1 0 5.6-2.5 5.6-5.5v-0.5c0-3-2.5-5.5-5.6-5.5h-51.4c-3.1 0-5.6 2.5-5.6 5.5v70.2c0 3.1 2.5 5.6 5.6 5.6h52.1c3.1 0 5.6-2.5 5.6-5.6z"/>
				<path id="&lt;Compound Path&gt;" class="s0" d="m283.8 379c1-2.5 0.5-5.3-1.4-7.3l-18-18.8c-0.8-0.9-1.1-2.1-0.7-3.2 0.4-1.1 1.3-1.9 2.4-2.1 2.7-0.5 5.2-1.3 7.4-2.2 4.5-2 8-4.7 10.4-8.1 2.4-3.5 3.7-7.6 3.7-12.2 0-4.4-1.3-8.5-3.7-11.9-2.4-3.5-5.9-6.3-10.4-8.3-4.4-2.1-9.7-3.1-15.6-3.1h-28.5c-3.7 0-6.7 3-6.7 6.7v67.9c0 3.7 3 6.7 6.7 6.7h1.4c3.8 0 6.8-3 6.8-6.7v-24.9c0-1.8 1.4-3.2 3.2-3.2 0.8 0 1.7 0.3 2.3 1l29.6 31.6c1.2 1.4 3 2.2 4.9 2.2 2.7 0 5.1-1.6 6.2-4.1zm-43-41.1c-1.8 0-3.2-1.4-3.2-3.2v-18.8c0-1.7 1.4-3.2 3.2-3.2h16.4c4.9 0 8.8 1.3 11.4 3.7 2.7 2.4 4.1 5.4 4.1 8.9 0 3.9-1.4 7.1-4.1 9.3-2.8 2.2-6.6 3.3-11.5 3.3z"/>
				<path id="&lt;Path&gt;" class="s0" d="m391.1 383.1h1.3c3.7 0 6.8-3.1 6.8-6.8v-67.7c0-3.7-3-6.8-6.7-6.8-2.2 0-4.4 1.1-5.8 3.1l-32 45.3c-0.4 0.7-1.2 1.1-2 1.1-0.9 0-1.6-0.4-2.1-1.1l-32-45.3c-1.4-2-3.5-3.1-5.7-3.1-3.7 0-6.8 3.1-6.8 6.8v67.7c0 3.7 3.1 6.8 6.8 6.8h1.3c3.8 0 6.8-3.1 6.8-6.8v-46.6l23.4 33.2c1.9 2.6 5 4.2 8.3 4.2 3.2 0 6.3-1.6 8.2-4.2l23.4-33.2v46.6c0 3.7 3 6.8 6.8 6.8z"/>
				<path id="&lt;Path&gt;" class="s0" d="m435.4 309.2c0-4.1-3.3-7.4-7.4-7.4-4.1 0-7.4 3.3-7.4 7.4v66.4c0 4.1 3.3 7.5 7.4 7.5 4.1 0 7.4-3.4 7.4-7.5z"/>
			</g>
			<g id="&lt;Group&gt;">
				<path id="&lt;Path&gt;" class="s0" d="m71.6 430.9h22.3v-4.1h-22.3v-15.1h23.9v-4.3h-23.9-1.6-3.1v44h3.1 1.6 24.3v-4.3h-24.3z"/>
				<path id="&lt;Path&gt;" class="s0" d="m159.1 442.3l-25.6-34.9h-3.4v44h4.7v-34.9l25.7 34.9h3.4v-44h-4.8z"/>
				<path id="&lt;Path&gt;" class="s0" d="m205.3 430.9h22.2v-4.1h-22.2v-15.1h23.9v-4.3h-23.9-1.6-3.2v44h3.2 1.6 24.2v-4.3h-24.2z"/>
				<path id="&lt;Compound Path&gt;" class="s0" d="m286.9 430.2q3.1-1.5 4.7-4.2 1.6-2.7 1.6-6.4 0-3.6-1.6-6.3-1.6-2.7-4.7-4.3-3.1-1.6-7.3-1.6h-11.2-1.6-3.1v44h4.7v-19.6h6l15.9 19.6h6l-16.1-19.7q3.9-0.1 6.7-1.5zm-18.5-18.6h11.2q4.3 0 6.6 2.2 2.3 2.3 2.3 5.9 0 3.6-2.3 5.8-2.4 2.2-6.7 2.2h-11.1z"/>
				<path id="&lt;Path&gt;" class="s0" d="m347.3 432.7h16.4q-0.3 4-1.9 7-2 3.8-5.6 5.8-3.6 2-8.5 2-4.9 0-8.8-2.4-3.8-2.3-6-6.4-2.2-4.1-2.2-9.3 0-5.3 2.2-9.4 2.2-4.1 6.1-6.4 4-2.3 9.1-2.3 4.3 0 7.9 1.7 3.6 1.8 5.9 5.1l3.3-3.3q-2.9-3.9-7.4-6-4.4-2.1-9.7-2.1-4.8 0-8.9 1.7-4 1.8-7 4.9-3.1 3.1-4.8 7.2-1.7 4-1.7 8.8 0 4.8 1.7 8.9 1.7 4.2 4.7 7.2 3 3.1 7 4.9 4.1 1.7 8.7 1.7 6.2 0 10.9-2.6 4.7-2.6 7.3-7.8 2.7-5.1 2.7-12.5v-0.7h-21.4z"/>
				<path id="&lt;Path&gt;" class="s0" d="m434.1 407.4h-5.3l-13.4 20-13.4-20h-5.5l16.5 24.4v19.6h4.7v-19.9z"/>
			</g>
		</g>
	</g>
</svg>